<svg width="32" height="32" viewBox="0 0 32 32" fill="none" xmlns="http://www.w3.org/2000/svg">
<rect x="0.455242" y="0.455242" width="31.0895" height="31.0895" rx="6.46445" fill="url(#paint0_linear_1_238)" stroke="#002030" stroke-width="0.902017"/>
<rect x="4.18358" y="4.18364" width="23.6328" height="23.6328" rx="3.45773" fill="url(#paint1_linear_1_238)" stroke="#002030" stroke-width="0.902017"/>
<mask id="path-3-outside-1_1_238" maskUnits="userSpaceOnUse" x="3.85284" y="3.85291" width="25" height="25" fill="black">
<rect fill="white" x="3.85284" y="3.85291" width="25" height="25"/>
<path d="M3.85284 6.85963C3.85284 5.19906 5.199 3.85291 6.85957 3.85291H24.8999C26.5605 3.85291 27.9066 5.19906 27.9066 6.85963V25.0202C27.9066 26.6808 26.5605 28.027 24.8999 28.027H6.85957C5.199 28.027 3.85284 26.6808 3.85284 25.0202V6.85963Z"/>
</mask>
<path d="M3.85284 3.85291H27.9066H3.85284ZM28.3276 25.0202C28.3276 26.9133 26.793 28.4479 24.8999 28.4479H7.28051C5.38746 28.4479 3.85284 26.9133 3.85284 25.0202V25.0202C3.85284 26.4483 5.199 27.606 6.85957 27.606H24.8999C26.328 27.606 27.4857 26.4483 27.4857 25.0202L28.3276 25.0202ZM3.85284 28.027V3.85291V28.027ZM24.8999 3.85291C26.793 3.85291 28.3276 5.38752 28.3276 7.28057V25.0202C28.3276 26.9133 26.793 28.4479 24.8999 28.4479L24.8999 27.606C26.328 27.606 27.4857 26.4483 27.4857 25.0202V6.85963C27.4857 5.19906 26.328 3.85291 24.8999 3.85291H24.8999Z" fill="#FAF3E0" mask="url(#path-3-outside-1_1_238)"/>
<path d="M19.1753 18.669L18.8564 18.3501L18.5375 18.669L17.7354 19.4712L17.4165 19.7901L17.7354 20.109L21.2236 23.5972C21.6213 23.9949 22.266 23.9949 22.6636 23.5972C23.0612 23.1996 23.0612 22.5549 22.6636 22.1573L19.1753 18.669Z" fill="#F6E4D5" stroke="#D1BAB3" stroke-width="0.902017"/>
<path fill-rule="evenodd" clip-rule="evenodd" d="M19.8159 17.5067C20.2225 16.6488 20.45 15.6895 20.45 14.677C20.45 11.0238 17.4884 8.06226 13.8352 8.06226C10.1819 8.06226 7.22038 11.0238 7.22038 14.677C7.22038 18.3303 10.1819 21.2918 13.8352 21.2918C14.7831 21.2918 15.6846 21.0924 16.4997 20.7333L16.8054 21.0389L20.2574 24.4909C21.1607 25.3943 22.6254 25.3943 23.5288 24.4909C24.4321 23.5875 24.4321 22.1229 23.5288 21.2195L20.0768 17.7676L19.8159 17.5067ZM18.1754 19.6689C18.4074 19.4671 18.6252 19.2493 18.8271 19.0173L19.439 18.4054L20.0768 19.0432L22.8909 21.8574C23.442 22.4085 23.442 23.302 22.8909 23.8531C22.3398 24.4042 21.4463 24.4042 20.8952 23.8531L18.0811 21.0389L17.4432 20.4011L18.0811 19.7633L18.1754 19.6689ZM18.1662 18.4025C19.0274 17.4023 19.5479 16.1005 19.5479 14.677C19.5479 11.522 16.9902 8.96427 13.8352 8.96427C10.6801 8.96427 8.12239 11.522 8.12239 14.677C8.12239 17.8321 10.6801 20.3898 13.8352 20.3898C15.2586 20.3898 16.5604 19.8692 17.5606 19.0081L18.1662 18.4025Z" fill="#002030"/>
<line x1="14.892" y1="6.48298" x2="16.1548" y2="4.43841" stroke="#002030" stroke-width="0.0601345"/>
<line x1="25.2929" y1="24.8887" x2="26.3753" y2="22.1827" stroke="#002030" stroke-width="0.0601345"/>
<circle cx="13.8352" cy="14.677" r="4.05908" fill="url(#paint2_linear_1_238)" stroke="#002030" stroke-width="0.902017"/>
<path d="M13.6854 11.0721C13.212 11.0918 12.7471 11.2045 12.3172 11.4039C11.8874 11.6032 11.501 11.8853 11.1802 12.234C10.8593 12.5826 10.6103 12.9911 10.4473 13.436C10.2844 13.8809 10.2106 14.3535 10.2303 14.8269L10.9608 14.7966C10.9451 14.4191 11.0039 14.0422 11.1339 13.6875C11.2639 13.3327 11.4624 13.0071 11.7182 12.7291C11.974 12.451 12.2821 12.2262 12.6249 12.0672C12.9676 11.9083 13.3383 11.8184 13.7157 11.8027L13.6854 11.0721Z" fill="#FAF6F5"/>
<circle cx="27.3654" cy="19.7284" r="2.67598" stroke="#002030" stroke-width="0.902017"/>
<circle cx="27.3654" cy="19.7284" r="1.77397" fill="#F3DECD" stroke="#D1BAB3" stroke-width="0.902017"/>
<circle cx="27.1249" cy="14.3163" r="1.23276" stroke="#002030" stroke-width="0.902017"/>
<circle cx="22.9756" cy="14.0155" r="1.23276" fill="#D1BAB3" stroke="#002030" stroke-width="0.902017"/>
<circle cx="10.648" cy="3.85279" r="1.23276" fill="#D1BAB3" stroke="#002030" stroke-width="0.902017"/>
<circle cx="11.1291" cy="26.5836" r="1.23276" fill="#D1BAB3" stroke="#002030" stroke-width="0.902017"/>
<circle cx="15.6993" cy="27.6059" r="1.47329" fill="#D1BAB3" stroke="#002030" stroke-width="0.902017"/>
<circle cx="16.451" cy="23.2462" r="0.902017" fill="#D1BAB3" stroke="#002030" stroke-width="0.902017"/>
<circle cx="12.9031" cy="23.3064" r="0.902017" fill="#D1BAB3" stroke="#002030" stroke-width="0.902017"/>
<circle cx="9.41527" cy="23.7273" r="0.902017" fill="#D1BAB3" stroke="#002030" stroke-width="0.902017"/>
<circle cx="6.22815" cy="20.1794" r="0.902017" fill="#D1BAB3" stroke="#002030" stroke-width="0.902017"/>
<circle cx="26.6739" cy="8.39303" r="1.68377" fill="#D1BAB3" stroke="#002030" stroke-width="0.902017"/>
<circle cx="21.9834" cy="5.80717" r="2.22497" fill="#D1BAB3" stroke="#002030" stroke-width="0.902017"/>
<circle cx="5.266" cy="13.2639" r="0.902017" fill="#D1BAB3" stroke="#002030" stroke-width="0.902017"/>
<circle cx="20.8709" cy="27.4255" r="1.77397" fill="#D1BAB3" stroke="#002030" stroke-width="0.902017"/>
<circle cx="6.43862" cy="5.89736" r="2.0145" fill="#F6E2CB" stroke="#002030" stroke-width="0.902017"/>
<circle cx="14.0757" cy="7.40074" r="1.11249" fill="#D1BAB3" stroke="#002030" stroke-width="0.902017"/>
<circle cx="22.9756" cy="14.0155" r="0.300672" fill="#F3DECD"/>
<circle cx="1.02229" cy="1.02229" r="0.781748" transform="matrix(-1 0 0 1 28.1472 13.2939)" fill="#F3DECD" stroke="#D1BAB3" stroke-width="0.481076"/>
<line x1="24.1646" y1="14.1081" x2="25.9085" y2="14.2886" stroke="#002030" stroke-width="0.902017"/>
<line x1="24.1551" y1="6.7651" x2="25.3578" y2="7.42658" stroke="#002030" stroke-width="0.902017"/>
<line x1="25.8142" y1="9.87915" x2="23.6493" y2="13.0663" stroke="#002030" stroke-width="0.902017"/>
<line x1="22.0403" y1="7.76771" x2="22.6416" y2="12.7589" stroke="#002030" stroke-width="0.902017"/>
<line x1="20.4229" y1="7.46366" x2="18.0175" y2="10.1096" stroke="#002030" stroke-width="0.902017"/>
<line x1="23.5151" y1="14.8251" x2="25.8002" y2="17.8318" stroke="#002030" stroke-width="0.902017"/>
<line x1="22.4327" y1="15.084" x2="20.9293" y2="18.8724" stroke="#002030" stroke-width="0.902017"/>
<line x1="17.8442" y1="21.5872" x2="17.0624" y2="22.4893" stroke="#002030" stroke-width="0.902017"/>
<line x1="19.229" y1="26.1208" x2="17.1243" y2="24.0161" stroke="#002030" stroke-width="0.902017"/>
<line x1="10.4369" y1="25.7852" x2="9.71524" y2="24.5223" stroke="#002030" stroke-width="0.902017"/>
<line x1="9.06076" y1="18.2201" x2="6.89592" y2="19.9039" stroke="#002030" stroke-width="0.902017"/>
<line x1="8.73883" y1="23.145" x2="6.87466" y2="20.92" stroke="#002030" stroke-width="0.902017"/>
<line x1="6.65649" y1="24.3619" x2="9.78348" y2="19.3106" stroke="#002030" stroke-width="0.902017"/>
<line x1="5.92781" y1="24.1609" x2="6.04808" y2="21.0339" stroke="#002030" stroke-width="0.902017"/>
<line x1="5.99157" y1="19.367" x2="5.26996" y2="13.9549" stroke="#002030" stroke-width="0.902017"/>
<line x1="7.86383" y1="13.0367" x2="6.60101" y2="7.68471" stroke="#002030" stroke-width="0.902017"/>
<line x1="12.7301" y1="7.18261" x2="8.22003" y2="6.34073" stroke="#002030" stroke-width="0.902017"/>
<line x1="19.6364" y1="6.58019" x2="15.1263" y2="7.48221" stroke="#002030" stroke-width="0.902017"/>
<line x1="13.411" y1="6.65163" x2="11.3664" y2="4.78747" stroke="#002030" stroke-width="0.902017"/>
<line x1="11.9705" y1="23.3024" x2="10.1664" y2="23.5429" stroke="#002030" stroke-width="0.902017"/>
<line x1="15.5189" y1="23.3064" x2="13.5946" y2="23.3064" stroke="#002030" stroke-width="0.902017"/>
<line x1="21.5925" y1="14.2862" x2="20.029" y2="14.2862" stroke="#002030" stroke-width="0.902017"/>
<line x1="24.5992" y1="19.9388" x2="21.5925" y2="19.9388" stroke="#002030" stroke-width="0.902017"/>
<circle cx="6.25822" cy="26.1026" r="1.95437" fill="url(#paint3_linear_1_238)" stroke="#002030" stroke-width="0.902017"/>
<circle cx="6.25822" cy="26.1026" r="0.54121" fill="#002030"/>
<circle cx="26.7039" cy="8.36293" r="0.300672" fill="#002030"/>
<circle cx="22.0135" cy="5.77709" r="0.962151" fill="#FCECD7"/>
<circle cx="17.0524" cy="5.68697" r="0.451008" fill="#002030"/>
<circle cx="25.5313" cy="12.4821" r="0.33074" fill="#002030"/>
<circle cx="26.3131" cy="11.2194" r="0.0902017" fill="#002030"/>
<circle cx="5.02546" cy="16.451" r="0.150336" fill="#002030"/>
<path d="M7.82171 18.0972C7.82171 18.2799 7.67363 18.428 7.49097 18.428C7.30831 18.428 7.16023 18.2799 7.16023 18.0972C7.16023 17.9146 7.30831 17.7665 7.49097 17.7665C7.67363 17.7665 7.82171 17.9146 7.82171 18.0972Z" fill="#002030"/>
<circle cx="6.19809" cy="10.5278" r="0.420941" fill="#002030"/>
<circle cx="9.23488" cy="8.51324" r="0.33074" fill="#002030"/>
<circle cx="20.1793" cy="9.47539" r="0.33074" fill="#002030"/>
<circle cx="14.1659" cy="25.4712" r="0.33074" fill="#002030"/>
<circle cx="10.1369" cy="21.5625" r="0.270605" fill="#002030"/>
<circle cx="6.79943" cy="22.4344" r="0.180403" fill="#002030"/>
<circle cx="23.156" cy="17.6838" r="0.240538" fill="#002030"/>
<circle cx="25.2607" cy="24.8999" r="0.601345" fill="#002030"/>
<line x1="25.2897" y1="24.8919" x2="25.891" y2="27.0567" stroke="#002030" stroke-width="0.0601345"/>
<line x1="16.2103" y1="24.181" x2="16.0299" y2="26.1053" stroke="#002030" stroke-width="0.0601345"/>
<line x1="16.5077" y1="24.1642" x2="18.3117" y2="27.5919" stroke="#002030" stroke-width="0.0601345"/>
<line x1="12.1962" y1="25.8962" x2="15.8644" y2="23.7314" stroke="#002030" stroke-width="0.0601345"/>
<line x1="12.0591" y1="20.5592" x2="12.7206" y2="22.243" stroke="#002030" stroke-width="0.0601345"/>
<line x1="13.977" y1="20.6094" x2="15.9013" y2="22.5939" stroke="#002030" stroke-width="0.0601345"/>
<line x1="6.22775" y1="10.5228" x2="7.43044" y2="17.8592" stroke="#002030" stroke-width="0.0601345"/>
<line x1="17.0805" y1="5.62686" x2="19.8466" y2="5.44645" stroke="#002030" stroke-width="0.0601345"/>
<line x1="8.43962" y1="6.8344" x2="11.4463" y2="8.81884" stroke="#002030" stroke-width="0.0601345"/>
<line x1="20.1159" y1="9.37163" x2="21.92" y2="12.9196" stroke="#002030" stroke-width="0.0601345"/>
<line x1="25.5358" y1="12.4362" x2="26.3176" y2="11.1734" stroke="#002030" stroke-width="0.0601345"/>
<line x1="25.5773" y1="12.6579" x2="24.1341" y2="13.56" stroke="#002030" stroke-width="0.0601345"/>
<line x1="23.1116" y1="17.6581" x2="24.9758" y2="18.8006" stroke="#002030" stroke-width="0.0601345"/>
<line x1="4.17445" y1="8.52176" x2="6.21902" y2="10.5062" stroke="#002030" stroke-width="0.0601345"/>
<line x1="7.77915" y1="7.37636" x2="9.28251" y2="8.45878" stroke="#002030" stroke-width="0.0601345"/>
<line x1="9.29403" y1="8.49074" x2="8.57242" y2="11.2569" stroke="#002030" stroke-width="0.0601345"/>
<line x1="8.03597" y1="26.0279" x2="8.93799" y2="24.4042" stroke="#002030" stroke-width="0.0601345"/>
<line x1="22.3011" y1="26.316" x2="25.3078" y2="24.8728" stroke="#002030" stroke-width="0.0601345"/>
<line x1="23.5316" y1="23.8514" x2="25.3357" y2="24.8737" stroke="#002030" stroke-width="0.0601345"/>
<line x1="19.3521" y1="12.1857" x2="25.0048" y2="8.81819" stroke="#002030" stroke-width="0.0601345"/>
<circle cx="6.40856" cy="5.92751" r="0.691546" fill="#FEF3DD"/>
<circle cx="20.8408" cy="27.3955" r="0.270605" fill="#002030"/>
<defs>
<linearGradient id="paint0_linear_1_238" x1="0.90625" y1="0.90625" x2="31.0938" y2="31.0938" gradientUnits="userSpaceOnUse">
<stop stop-color="#FEF5E0"/>
<stop offset="1" stop-color="#BFA7A3"/>
</linearGradient>
<linearGradient id="paint1_linear_1_238" x1="5.62681" y1="6.01774" x2="25.8621" y2="26.6739" gradientUnits="userSpaceOnUse">
<stop stop-color="#FEEFD8"/>
<stop offset="0.467871" stop-color="#E6CFC2"/>
<stop offset="0.530886" stop-color="#C6AAA7"/>
<stop offset="1" stop-color="#AA8A8F"/>
</linearGradient>
<linearGradient id="paint2_linear_1_238" x1="10.648" y1="12.0011" x2="16.6615" y2="17.4733" gradientUnits="userSpaceOnUse">
<stop stop-color="#FEF1DC"/>
<stop offset="0.510317" stop-color="#F5E5D1"/>
<stop offset="0.510417" stop-color="#FEF0D9"/>
<stop offset="0.510517" stop-color="#E4CEC1"/>
<stop offset="0.666567" stop-color="#E4CDBF"/>
<stop offset="0.666667" stop-color="#E4CDC0"/>
<stop offset="0.666767" stop-color="#A9898E"/>
</linearGradient>
<linearGradient id="paint3_linear_1_238" x1="4.51432" y1="24.5692" x2="7.61125" y2="27.6661" gradientUnits="userSpaceOnUse">
<stop stop-color="#FBE7D3"/>
<stop offset="1" stop-color="#EBD7C5"/>
</linearGradient>
</defs>
</svg>
